<svg xmlns="http://www.w3.org/2000/svg" width="146.3464mm" height="28.4885mm" viewBox="0 0 414.8403 80.7547"><defs><style>.cls-1,.cls-3{fill:#424142;}.cls-2{fill:#434143;}.cls-3{stroke:#414142;stroke-miterlimit:10;stroke-width:0.8504px;}</style></defs><title>logo5</title><g id="Слой_1" data-name="Слой 1"><polygon class="cls-1" points="203.008 36.212 232.506 36.212 231.83 38.44 230.576 41.546 228.869 44.376 227.406 46.19 225.014 48.463 221.988 50.595 218.4 52.311 216.759 52.863 214.67 53.352 212.006 53.712 209.592 53.78 206.971 53.578 205.066 53.291 202.701 52.71 200.4 51.877 198.733 51.103 196.67 49.856 194.687 48.358 193.747 47.546 192.008 45.75 189.915 43.077 189.617 42.561 189.313 42.159 188.5 40.736 187.609 38.772 186.723 36.235 186.391 34.665 186.084 32.504 185.972 30.313 186.061 28.198 186.535 25.156 186.915 23.664 187.4 22.212 188.397 19.895 189.667 17.636 191.595 15.089 192.045 14.619 192.438 14.145 193.806 12.81 195.247 11.614 197.877 9.915 200.762 8.629 202.595 8.054 205.187 7.49 207.872 7.189 210.814 7.126 211.229 7.157 211.611 7.15 212.773 7.264 213.136 7.276 216.449 7.894 218.227 8.502 218.564 8.593 221.864 10.186 223.787 11.49 225.533 13.012 227.711 15.603 228.68 17.138 232.718 17.138 231.131 14.481 230.883 14.211 230.354 13.414 229.238 12.109 227.058 10.036 225.291 8.704 222.625 7.17 219.36 5.851 216.272 5.032 213.008 4.556 210.015 4.437 207.764 4.5 204.893 4.793 202.812 5.182 199.576 6.134 197.097 7.15 196.573 7.47 195.949 7.767 193.162 9.543 192.144 10.346 190.625 11.71 189.667 12.645 187.641 15.059 186.245 17.09 184.877 19.78 184.03 22.061 183.672 23.241 183.07 26.324 182.874 28.249 182.806 30.238 182.822 30.917 183.049 34.159 183.36 36.01 183.803 37.808 184.787 40.69 185.562 42.343 186.46 43.922 187.821 45.959 189.851 48.368 191.875 50.261 192.925 51.136 194.002 51.906 196.888 53.62 198.733 54.453 200 54.92 201.289 55.304 203.366 55.817 206.241 56.267 208.485 56.43 210.71 56.467 213.334 56.29 215.261 56.052 217.683 55.504 218.803 55.158 219.43 54.991 221.645 54.11 223.258 53.303 225.771 51.711 227.678 50.206 228.086 49.798 228.568 49.386 229.809 48.097 230.625 47.167 232.679 44.268 233.547 42.675 234.765 39.881 235.316 38.141 236.063 35.022 236.272 33.518 203.008 33.518 203.008 36.212"/><polygon class="cls-1" points="272.542 17.678 271.703 14.808 270.824 12.966 269.676 11.309 268.579 10.143 267.332 9.093 265.641 8.004 264.123 7.25 261.14 6.236 258.701 5.728 256.573 5.489 239.533 5.34 239.533 55.523 242.732 55.523 242.732 8.028 253.136 8.028 253.687 8.038 254.197 8.038 257.246 8.276 259.514 8.661 262.759 9.761 265.105 11.124 266.019 11.884 267.26 13.233 268.363 14.945 269.029 16.562 269.467 18.348 269.676 20.24 269.666 21.699 269.669 22.035 269.252 24.607 268.451 26.895 268.086 27.516 267.113 28.92 265.935 30.17 264.021 31.577 262.119 32.497 259.197 33.377 255.907 33.842 251.011 33.94 267.064 55.383 267.172 55.523 271.109 55.523 256.442 36.081 258.877 36.026 260.437 35.973 260.85 35.859 261.208 35.849 262.671 35.555 263.996 35.123 265.282 34.557 266.471 33.866 268.357 32.334 269.816 30.731 271.178 28.653 271.275 28.397 271.465 28.054 271.895 27.079 272.679 24.001 272.851 21.794 272.773 19.47 272.542 17.678"/><path class="cls-1" d="M327.74,25.411l-.1406-.5821-.0743-.6425-.1377-.6495-.7441-2.3964-.6924-1.7481-.8154-1.666-.3174-.5078-.29-.5723-1.0576-1.5732-.79-.9737-.8418-.9379-.418-.5142-1.916-1.8115L316.41,8.5081,315.34,7.89l-2.2822-1.16-1.72-.6938-1.8642-.5825L307.57,5.0037l-3.3125-.4731-2.795-.0933-4.1748.2285L294.04,5.3l-2.4541.752-1.7695.7329-2.22,1.1587-2.164,1.3808-1.0352.7984-1.9648,1.7446-1.7959,1.9287-1.54,2.0342-1.0058,1.6123L276.7069,20.25l-.6426,1.8047-.8008,3.1084-.3388,2.6631-.1114,2.7588.1114,2.7773.3554,2.6114.4248,1.8906,1.0215,2.9892.5195,1.12,1.1778,2.2031,1.0547,1.5674,1.1914,1.4717,1.8047,1.916,1.9746,1.7041,1.56,1.1455,1.6192,1.0058,1.6845.8809,1.1426.5059,3.01,1.0517,1.8965.45,2.6435.4014,2.0371.1533,2.1445.0361,2.7461-.1992,1.9971-.2871,1.9483-.4209,1.8476-.5488,2.9649-1.1914,1.664-.9073,2.1416-1.4267,1.4951-1.1944,1.502-1.3349,1.7754-1.94.8193-1.0312,1.0869-1.5733,1.5274-2.75.7383-1.7451.9531-3.0508.1308-.6543.0743-.6269.2646-1.3135.18-2.0185.0615-2.8047-.2412-3.3653ZM324.93,30.7537l-.1113,1.8965-.14,1.2119-.0459.5381-.61,2.8975-.5517,1.6465-1.1192,2.5918-1.4785,2.4218-.3926.48-.3125.4727-1.499,1.74-.8779.8457-.3594.3945L316.1,49.0047l-1.86,1.3027-2.4609,1.3448-1.6162.6592-2.1573.6591-2.2783.4893-1.7363.2031-3.0488.1172-3.0391-.2383-2.3213-.4013-2.7227-.78L289.77,50.9989l-1.9454-1.1817-.914-.6523-.4863-.4151-.4209-.2871-1.711-1.6-1.5146-1.7-1.6192-2.331-.5478-.9532-1.1494-2.5693-.6758-2.16-.4932-2.3144-.2539-2.3994-.0683-2.4483.2216-3.0488.584-2.873.669-2.17.914-2.0976.8125-1.4756,1.6192-2.36,1.9062-2.1425,2.6514-2.2915,1.4463-.95,1.4843-.8589,1.5215-.7134,2.1387-.7915,2.2354-.5811,2.3115-.3574,2.4414-.15h1.2148l1.2139.0557,1.8018.1611,2.2656.3965,1.6709.4326,2.5986.9468,2.03,1.0576,1.8838,1.1816,3.039,2.605.3789.4405.8028.8388.6787.9112.3428.4179,1.4853,2.3487.7149,1.5419.9658,2.6543.6113,2.7813.0518.6348.0908.5761.0488.6084Z"/><polygon class="cls-1" points="361.885 36.085 361.885 37.123 361.787 38.643 361.787 39.078 361.591 40.919 361.265 42.662 360.455 45.45 360.122 46.18 360.001 46.527 359.097 48.178 357.801 49.912 356.753 50.918 355.624 51.766 354.119 52.605 352.058 53.33 350.159 53.663 347.642 53.78 345.59 53.585 343.686 53.189 342.377 52.729 341.92 52.487 341.561 52.347 341.137 52.079 340.738 51.871 339.619 51.074 339.306 50.79 337.742 49.095 337.193 48.329 336.488 47.089 336.286 46.632 335.842 45.675 335.51 44.549 335.412 44.317 334.553 39.724 334.432 5.34 331.26 5.34 331.26 36.085 331.266 37.407 331.621 41.677 332.039 43.844 332.777 46.335 333.361 47.709 334.699 50.16 334.968 50.457 335.216 50.836 336.6 52.396 337.808 53.428 339.746 54.641 340.805 55.144 343.183 55.925 343.976 56.052 344.428 56.157 346.693 56.418 348.644 56.467 349.653 56.418 351.478 56.225 353.609 55.784 355.95 54.962 357.686 54.015 358.607 53.346 360.35 51.762 361.428 50.418 362.159 49.302 363.027 47.631 363.719 45.842 364.016 44.833 364.861 40.471 364.985 38.686 365.07 5.34 361.885 5.34 361.885 36.085"/><path class="cls-1" d="M401.61,14.9676l-.1074-.2412-.0811-.3193-.999-2.1778-.6533-1.0117-.1826-.1963-.1368-.2431-.4775-.586-1.791-1.6709-1.0488-.7-1.99-.9892-2.2558-.7588-2.0147-.4146-1.6191-.17L369.7909,5.34V55.5233H372.97V34.58h12.29l3.2549-.16,2.8887-.4991,2.0732-.6562,1.5664-.6826,1.0645-.5957,1.87-1.4229,1.4824-1.6074.1045-.1992.2314-.2774.7315-1.1328.0879-.23.209-.3164.4082-.9287.6064-1.9052.3008-1.7188.1006-2.6143-.31-3.4453Zm-2.6436,7.1016-.4765,1.9345-.79,1.7784-1.2011,1.789-.4209.3965-.1543.2207-1.2364,1.0752-1.9755,1.1934-1.6377.6435-2.4981.5742-1.23.1045L387,31.8426l-14.03.0537V8.0282h12.372l.4209.01h.4248l2.3536.2012,1.5761.331.3008.0391,1.9805.6743,1.541.8013,1.5537,1.1929,1.375,1.4643,1.2471,2.1738.1787.5254.1143.2452.51,1.916.042.5879.0527.2734.085,1.8223L398.96,21.84Z"/><path class="cls-1" d="M63.0916,3.785a26.6736,26.6736,0,0,0-19.0073,7.7427A25.7241,25.7241,0,0,0,36.2811,30.49a25.6143,25.6143,0,0,0,7.8877,18.8408A26.058,26.058,0,0,0,63.1034,57.077h.041a26.4774,26.4774,0,0,0,19.0923-7.7461A25.5188,25.5188,0,0,0,90.0238,30.49a25.726,25.726,0,0,0-7.8833-18.9624A26.4892,26.4892,0,0,0,63.0916,3.785ZM50.3109,17.24a18.1464,18.1464,0,0,1,25.7856,0,17.6359,17.6359,0,0,1,5.4043,13.1826,18.6918,18.6918,0,0,1-5.4043,13.0947,17.4848,17.4848,0,0,1-12.9443,5.4775,17.7776,17.7776,0,0,1-12.9331-5.3671,18.2037,18.2037,0,0,1-5.3955-13.1924A18.2806,18.2806,0,0,1,50.3109,17.24Z"/><polygon class="cls-1" points="125.54 4.059 87.37 4.059 87.37 11.864 102.33 11.864 102.33 56.852 110.589 56.852 110.589 11.864 125.54 11.864 125.54 4.059"/><polygon class="cls-1" points="38.927 4.059 0.777 4.059 0.777 11.864 15.736 11.864 15.736 56.852 23.972 56.852 23.972 11.864 38.927 11.864 38.927 4.059"/><path class="cls-1" d="M149.6844,3.785a26.8308,26.8308,0,0,0-19.0288,7.7427,25.7418,25.7418,0,0,0-7.8,18.9624,25.47,25.47,0,0,0,7.9434,18.8408,25.8693,25.8693,0,0,0,18.89,7.7461h.0474a26.3586,26.3586,0,0,0,19.0864-7.7461A25.5111,25.5111,0,0,0,176.6312,30.49a25.6378,25.6378,0,0,0-7.9063-18.9624A26.4322,26.4322,0,0,0,149.6844,3.785ZM136.9281,17.24a18.12,18.12,0,0,1,25.768.0048,17.5933,17.5933,0,0,1,5.3877,13.1778,18.7142,18.7142,0,0,1-5.3877,13.0947,17.562,17.562,0,0,1-12.9511,5.4775,17.8015,17.8015,0,0,1-12.9312-5.3671,18.19,18.19,0,0,1-5.38-13.1924A18.075,18.075,0,0,1,136.9281,17.24Z"/></g><g id="copyrights_1" data-name="copyrights 1"><path class="cls-2" d="M408.0965,1.3953a5.2244,5.2244,0,1,0,0,10.4488,5.2868,5.2868,0,0,0,5.22-5.2212A5.2917,5.2917,0,0,0,408.0965,1.3953Zm-.7666,3.31h.7051c1.2139,0,1.2139.5386,1.2139.8354,0,.2808,0,.8619-1.2139.8619H407.33Zm0,4.9453V7.1434l1.8965,2.5073h1.1211A3.7946,3.7946,0,1,1,405.92,3.4891V9.6507Zm3.3916-.3076-1.4043-1.8667a2.1263,2.1263,0,0,0,1.29-1.9356c0-.622-.252-2.0581-2.5723-2.0581h-2.1074a3.8,3.8,0,0,1,5.9717,3.14A3.747,3.747,0,0,1,410.7215,9.3431Z"/></g><g id="text_new" data-name="text new"><path class="cls-3" d="M9.3639,67h1.71l4.08,9.4493L19.2335,67h1.71v11.1h-1.11V68.2449l-4.2148,9.8544h-.93l-4.2148-9.8544v9.8544h-1.11Z"/><path class="cls-3" d="M30.5207,67h1.23l4.7549,11.1h-1.2l-1.6045-3.72h-5.16l-1.605,3.72h-1.2Zm2.7451,6.375-2.13-5.0849-2.16,5.0849Z"/><path class="cls-3" d="M41.3141,67h5.6851v1.0049H42.424V78.0993h-1.11Z"/><path class="cls-3" d="M53.19,67h1.23l4.7548,11.1h-1.2L56.37,74.38H51.21l-1.605,3.72h-1.2Zm2.7451,6.375-2.13-5.0849-2.16,5.0849Z"/><path class="cls-3" d="M66.7589,66.8049A2.8941,2.8941,0,0,1,69.9538,69.79a2.6365,2.6365,0,0,1-1.68,2.5049,2.7051,2.7051,0,0,1,1.98,2.79c0,1.62-1.125,3.21-3.585,3.21a3.3215,3.3215,0,0,1-3.6148-3.585h1.11a2.3494,2.3494,0,0,0,2.5049,2.58,2.1712,2.1712,0,0,0,2.4746-2.1758c0-1.1846-.7349-2.2495-2.58-2.2495h-.66V71.86h.66a1.9935,1.9935,0,0,0,2.28-2.085,1.9031,1.9031,0,0,0-2.07-1.9648,1.9516,1.9516,0,0,0-2.1,2.085h-1.11A2.9182,2.9182,0,0,1,66.7589,66.8049Z"/><path class="cls-3" d="M76.4582,67v9.5244L83.0582,67h1.17v11.1h-1.11V68.5749l-6.6,9.5244h-1.17V67Z"/><path class="cls-3" d="M89.9816,67h1.11v4.89h5.8051V67h1.11v11.1h-1.11V72.8948H91.0915v5.2045h-1.11Z"/><path class="cls-3" d="M104.87,67v4.59h2.55c2.25,0,3.5244,1.2749,3.5244,3.2549a3.2272,3.2272,0,0,1-3.5244,3.2548h-3.66V67Zm0,10.0948h2.5649a2.2547,2.2547,0,1,0,0-4.5H104.87ZM112.13,67h1.11v11.1h-1.11Z"/><path class="cls-3" d="M137.3043,72.49a5.882,5.882,0,1,1-5.88-5.6846A5.6442,5.6442,0,0,1,137.3043,72.49Zm-1.11,0a4.5833,4.5833,0,0,0-4.7544-4.68,4.74,4.74,0,1,0,4.7544,4.68Z"/><path class="cls-3" d="M152.0714,77.0945h1.0054V80.199h-1.11v-2.1h-9.27v2.1h-1.11V77.0945h1.0048L146.7321,67h1.2Zm-1.2,0-3.54-8.67-3.54,8.67Z"/><path class="cls-3" d="M157.8249,67h6.09v1.0049h-4.98V72.01h4.815v1.0049h-4.815v4.08h4.98v1.0048h-6.09Z"/><path class="cls-3" d="M169.7448,78.0993h-1.38l4.4248-5.8945L168.6945,67h1.32l4.1245,5.31Zm6-11.1v11.1h-1.11V67Zm4.62,0h1.32L177.59,72.2048l4.4248,5.8945h-1.38l-4.395-5.79Z"/><path class="cls-3" d="M196.2111,77.0945h1.0054V80.199h-1.11v-2.1h-9.2695v2.1h-1.11V77.0945h1.0049L190.8717,67h1.2Zm-1.2,0-3.54-8.67-3.54,8.67Z"/><path class="cls-3" d="M203.0744,67v4.59h2.55c2.25,0,3.5244,1.2749,3.5244,3.2549a3.2272,3.2272,0,0,1-3.5244,3.2548h-3.66V67Zm0,10.0948h2.5649a2.2547,2.2547,0,1,0,0-4.5h-2.5649ZM210.3341,67h1.11v11.1h-1.11Z"/><path class="cls-3" d="M225.339,67v9.5244L231.94,67h1.17v11.1h-1.11V68.5749l-6.6,9.5244h-1.17V67Z"/><path class="cls-3" d="M249.7335,67h1.2305l4.7549,11.1h-1.2l-1.6045-3.72h-5.16l-1.6055,3.72h-1.1992Zm2.7452,6.375-2.13-5.0849-2.16,5.0849Z"/><path class="cls-3" d="M261.6369,67v11.1h-1.1094V67Zm5.04,0h1.32l-4.2754,5.295,4.4551,5.8046h-1.38l-4.3945-5.6845Z"/><path class="cls-3" d="M282.1359,69.8347a4.3465,4.3465,0,0,0-3.7793-2.0249,4.5947,4.5947,0,0,0-4.665,4.71,4.6815,4.6815,0,0,0,4.74,4.77,4.42,4.42,0,0,0,3.749-2.085h1.32a5.7755,5.7755,0,1,1-5.16-8.4,5.44,5.44,0,0,1,5.1152,3.03Z"/><path class="cls-3" d="M288.7892,67h6.09v1.0049h-4.9805V72.01h4.8154v1.0049h-4.8154v4.08h4.9805v1.0048h-6.09Z"/><path class="cls-3" d="M309.4386,69.8347a4.3487,4.3487,0,0,0-3.78-2.0249,4.5947,4.5947,0,0,0-4.665,4.71,4.6821,4.6821,0,0,0,4.74,4.77,4.4226,4.4226,0,0,0,3.75-2.085h1.3194a5.7751,5.7751,0,1,1-5.1592-8.4,5.44,5.44,0,0,1,5.1143,3.03Z"/><path class="cls-3" d="M325.1662,69.8347a4.3487,4.3487,0,0,0-3.78-2.0249,4.5947,4.5947,0,0,0-4.6651,4.71,4.6821,4.6821,0,0,0,4.74,4.77,4.4228,4.4228,0,0,0,3.75-2.085H326.53a5.7751,5.7751,0,1,1-5.1592-8.4,5.44,5.44,0,0,1,5.1143,3.03Z"/><path class="cls-3" d="M334.9083,78.0993h-1.1542l1.3046-2.8945L330.7843,67h1.26l3.6142,7.0049L338.7785,67h1.1552Z"/><path class="cls-3" d="M346.8283,67h1.23l4.7549,11.1h-1.2l-1.6045-3.72h-5.16l-1.6055,3.72h-1.1992Zm2.7451,6.375-2.13-5.0849-2.16,5.0849Z"/><path class="cls-3" d="M357.6222,67h3.51c3.2549,0,3.8252,2.07,3.8252,3.33,0,1.65-1.0205,3.3145-3.8252,3.3145h-2.4v4.455h-1.1094Zm1.1094,5.64h2.415c1.9805,0,2.7-1.1548,2.7-2.31,0-1.185-.72-2.3252-2.7-2.3252h-2.415Z"/><path class="cls-3" d="M381.3156,72.49a5.882,5.882,0,1,1-5.88-5.6846A5.644,5.644,0,0,1,381.3156,72.49Zm-1.1094,0a4.5838,4.5838,0,0,0-4.7549-4.68,4.74,4.74,0,1,0,4.7549,4.68Z"/><path class="cls-3" d="M386.6037,67h2.7744c1.1552,0,3.6748.1353,3.6748,2.9248a2.54,2.54,0,0,1-1.335,2.22,2.7861,2.7861,0,0,1,1.9356,2.82c0,.87-.375,3.1347-4.0049,3.1347h-3.0449Zm2.7744,4.7549c.9306,0,2.5654-.165,2.5654-1.875,0-1.83-1.7549-1.875-2.5654-1.875H387.713v3.75Zm.27,5.34c1.0351,0,2.88-.18,2.88-2.1153,0-2.0249-1.7852-2.22-2.88-2.22H387.713v4.335Z"/></g></svg>